<svg id="emoji" viewBox="0 0 72 72" xmlns="http://www.w3.org/2000/svg">
    <path d="M34.86280690034232 197.6692352294922L 123.92948029041304 197.6692352294922L123.92948029041304 325.66923904418945L34.86280690034232 325.66923904418945 Z" fill="black" stroke="red"></path>
    <path d="M41.52947376569114 227.53590227762857L 118.06281141440081 227.53590227762857L118.06281141440081 229.13590334256492L41.52947376569114 229.13590334256492 Z" fill="black" stroke="red"></path>
    <path d="M41.52947376569114 297.402575604121L 118.06281141440081 297.402575604121L118.06281141440081 298.2025735934576L41.52947376569114 298.2025735934576 Z" fill="black" stroke="red"></path>
    <path d="M41.52947376569114 303.2692343076069L 118.06281141440081 303.2692343076069L118.06281141440081 304.8692302862801L41.52947376569114 304.8692302862801 Z" fill="black" stroke="red"></path>
    <path d="M41.529481395085895 233.4025686105092L 117.79614626566581 233.4025686105092L117.79614626566581 234.20256914297738L41.529481395085895 234.20256914297738 Z" fill="black" stroke="red"></path>
    <path d="M41.529481395085895 292.3359047174454L 117.79614626566581 292.3359047174454L117.79614626566581 293.13590270678196L41.529481395085895 293.13590270678196 Z" fill="black" stroke="red"></path>
    <path d="M41.52947376569114 237.93590411345167L 51.39614021778107 237.93590411345167L51.39614021778107 239.53590517838802L41.52947376569114 239.53590517838802 Z" fill="black" stroke="red"></path>
    <path d="M75.66280862490339 249.66923677921295L 85.52947762012491 249.66923677921295L85.52947762012491 251.2692378441493L75.66280862490339 251.2692378441493 Z" fill="black" stroke="red"></path>
    <path d="M41.52947376569114 243.80256790320072L 45.26280619303384 243.80256790320072L45.26280619303384 245.40256896813707L41.52947376569114 245.40256896813707 Z" fill="black" stroke="red"></path>
    <path d="M41.52947376569114 255.53590565522518L 47.39614009857178 255.53590565522518L47.39614009857178 257.13590672016153L41.52947376569114 257.13590672016153 Z" fill="black" stroke="red"></path>
    <path d="M41.52947376569114 261.13590175310765L 52.99614128271742 261.13590175310765L52.99614128271742 262.735902818044L41.52947376569114 262.735902818044 Z" fill="black" stroke="red"></path>
    <path d="M51.662807909647654 267.0025706291199L 67.39614069461823 267.0025706291199L67.39614069461823 268.6025716940562L51.662807909647654 268.6025716940562 Z" fill="black" stroke="red"></path>
    <path d="M41.52947376569114 267.0025706291199L 49.529474004109716 267.0025706291199L49.529474004109716 268.6025716940562L41.52947376569114 268.6025716940562 Z" fill="black" stroke="red"></path>
    <path d="M41.52947376569114 284.3359044790268L 52.99614128271742 284.3359044790268L52.99614128271742 285.9359004577L41.52947376569114 285.9359004577 Z" fill="black" stroke="red"></path>
    <path d="M55.396140336990356 284.3359044790268L 75.12947324117022 284.3359044790268L75.12947324117022 285.9359004577L55.396140336990356 285.9359004577 Z" fill="black" stroke="red"></path>
    <path d="M77.26280968983974 284.3359044790268L 85.52947762012491 284.3359044790268L85.52947762012491 285.9359004577L77.26280968983974 285.9359004577 Z" fill="black" stroke="red"></path>
    <path d="M59.662813234329406 312.6025780916216L 85.79614022572832 312.6025780916216L85.79614022572832 313.40257608095817L59.662813234329406 313.40257608095817 Z" fill="black" stroke="red"></path>
    <path d="M41.52947376569114 272.8692395051321L 54.06280696392059 272.8692395051321L54.06280696392059 274.46924057006845L41.52947376569114 274.46924057006845 Z" fill="black" stroke="red"></path>
    <path d="M56.19614086945853 272.8692395051321L 73.26280957063045 272.8692395051321L73.26280957063045 274.46924057006845L56.19614086945853 274.46924057006845 Z" fill="black" stroke="red"></path>
    <path d="M51.12947252591448 278.73590329488115L 69.79613974889116 278.73590329488115L69.79613974889116 280.3359043598175L51.12947252591448 280.3359043598175 Z" fill="black" stroke="red"></path>
    <path d="M47.92947039604178 243.80256790320072L 61.529471818606 243.80256790320072L61.529471818606 245.40256896813707L47.92947039604178 245.40256896813707 Z" fill="black" stroke="red"></path>
    <path d="M69.79613974889116 255.53590565522518L 85.52947253386174 255.53590565522518L85.52947253386174 257.13590672016153L69.79613974889116 257.13590672016153 Z" fill="black" stroke="red"></path>
    <path d="M41.52947376569114 249.66923677921295L 52.46280589898424 249.66923677921295L52.46280589898424 251.2692378441493L41.52947376569114 251.2692378441493 Z" fill="black" stroke="red"></path>
    <path d="M53.796139272054006 237.93590411345167L 68.72947406768799 237.93590411345167L68.72947406768799 239.53590517838802L53.796139272054006 239.53590517838802 Z" fill="black" stroke="red"></path>
    <path d="M71.66280341943093 237.93590411345167L 85.52947253386174 237.93590411345167L85.52947253386174 239.53590517838802L71.66280341943093 239.53590517838802 Z" fill="black" stroke="red"></path>
    <path d="M64.19613856474552 243.80256790320072L 85.52947253386174 243.80256790320072L85.52947253386174 245.40256896813707L64.19613856474552 245.40256896813707 Z" fill="black" stroke="red"></path>
    <path d="M55.929473177591944 249.66923677921295L 72.46280649503069 249.66923677921295L72.46280649503069 251.2692378441493L55.929473177591944 251.2692378441493 Z" fill="black" stroke="red"></path>
    <path d="M50.59613968531289 255.53590565522518L 66.32947501341505 255.53590565522518L66.32947501341505 257.13590672016153L50.59613968531289 257.13590672016153 Z" fill="black" stroke="red"></path>
    <path d="M56.19614086945853 261.13590175310765L 73.26280957063045 261.13590175310765L73.26280957063045 262.735902818044L56.19614086945853 262.735902818044 Z" fill="black" stroke="red"></path>
    <path d="M76.1961389223734 261.13590175310765L 85.52947253386174 261.13590175310765L85.52947253386174 262.735902818044L76.1961389223734 262.735902818044 Z" fill="black" stroke="red"></path>
    <path d="M76.1961389223734 272.8692395051321L 85.52947253386174 272.8692395051321L85.52947253386174 274.46924057006845L76.1961389223734 274.46924057006845 Z" fill="black" stroke="red"></path>
    <path d="M72.72947418689728 278.73590329488115L 85.52947253386174 278.73590329488115L85.52947253386174 280.3359043598175L72.72947418689728 280.3359043598175 Z" fill="black" stroke="red"></path>
    <path d="M41.26280607382455 278.73590329488115L 49.26280631224313 278.73590329488115L49.26280631224313 280.3359043598175L41.26280607382455 280.3359043598175 Z" fill="black" stroke="red"></path>
    <path d="M69.79613974889116 267.0025706291199L 85.52947253386174 267.0025706291199L85.52947253386174 268.6025716940562L69.79613974889116 268.6025716940562 Z" fill="black" stroke="red"></path>
    <path d="M109.52947324911747 237.93590411345167L 118.06280887126923 237.93590411345167L118.06280887126923 239.53590517838802L109.52947324911747 239.53590517838802 Z" fill="black" stroke="red"></path>
    <path d="M109.52947324911747 243.80256790320072L 118.06280887126923 243.80256790320072L118.06280887126923 245.40256896813707L109.52947324911747 245.40256896813707 Z" fill="black" stroke="red"></path>
    <path d="M109.52947324911747 249.66923677921295L 118.06280887126923 249.66923677921295L118.06280887126923 251.2692378441493L109.52947324911747 251.2692378441493 Z" fill="black" stroke="red"></path>
    <path d="M109.52947324911747 255.53590565522518L 118.06280887126923 255.53590565522518L118.06280887126923 257.13590672016153L109.52947324911747 257.13590672016153 Z" fill="black" stroke="red"></path>
    <path d="M109.52947324911747 261.13590175310765L 118.06280887126923 261.13590175310765L118.06280887126923 262.735902818044L109.52947324911747 262.735902818044 Z" fill="black" stroke="red"></path>
    <path d="M109.52947324911747 267.0025706291199L 118.06280887126923 267.0025706291199L118.06280887126923 268.6025716940562L109.52947324911747 268.6025716940562 Z" fill="black" stroke="red"></path>
    <path d="M109.52947324911747 272.8692395051321L 118.06280887126923 272.8692395051321L118.06280887126923 274.46924057006845L109.52947324911747 274.46924057006845 Z" fill="black" stroke="red"></path>
    <path d="M109.52947324911747 278.73590329488115L 118.06280887126923 278.73590329488115L118.06280887126923 280.3359043598175L109.52947324911747 280.3359043598175 Z" fill="black" stroke="red"></path>
    <path d="M109.52947324911747 284.3359044790268L 118.06280887126923 284.3359044790268L118.06280887126923 285.9359004577L109.52947324911747 285.9359004577 Z" fill="black" stroke="red"></path>
    <path d="M87.92947667439785 238.46923695405326L 88.72947466373444 238.46923695405326L88.72947466373444 239.26923748652143L87.92947667439785 239.26923748652143 Z" fill="black" stroke="red"></path>
    <path d="M89.52947265307102 238.46923695405326L 105.52947312990818 238.46923695405326L105.52947312990818 239.26923748652143L89.52947265307102 239.26923748652143 Z" fill="black" stroke="red"></path>
    <path d="M106.32947111924477 238.46923695405326L 107.12946910858136 238.46923695405326L107.12946910858136 239.26923748652143L106.32947111924477 239.26923748652143 Z" fill="black" stroke="red"></path>
    <path d="M87.92947667439785 244.3359032869339L 88.72947466373444 244.3359032869339L88.72947466373444 245.1359012762705L87.92947667439785 245.1359012762705 Z" fill="black" stroke="red"></path>
    <path d="M89.52947265307102 244.3359032869339L 105.52947312990818 244.3359032869339L105.52947312990818 245.1359012762705L89.52947265307102 245.1359012762705 Z" fill="black" stroke="red"></path>
    <path d="M106.32947111924477 244.3359032869339L 107.12946910858136 244.3359032869339L107.12946910858136 245.1359012762705L106.32947111924477 245.1359012762705 Z" fill="black" stroke="red"></path>
    <path d="M87.92947667439785 249.93590447107954L 88.72947466373444 249.93590447107954L88.72947466373444 250.73590246041613L87.92947667439785 250.73590246041613 Z" fill="black" stroke="red"></path>
    <path d="M89.52947265307102 250.20257216294613L 105.52947312990818 250.20257216294613L105.52947312990818 251.00257015228271L89.52947265307102 251.00257015228271 Z" fill="black" stroke="red"></path>
    <path d="M106.32947111924477 249.93590447107954L 107.12946910858136 249.93590447107954L107.12946910858136 250.73590246041613L106.32947111924477 250.73590246041613 Z" fill="black" stroke="red"></path>
    <path d="M87.92947667439785 255.8025682608286L 88.72947466373444 255.8025682608286L88.72947466373444 256.6025662501652L87.92947667439785 256.6025662501652 Z" fill="black" stroke="red"></path>
    <path d="M89.52947265307102 255.80257334709177L 105.52947312990818 255.80257334709177L105.52947312990818 256.60257133642835L89.52947265307102 256.60257133642835 Z" fill="black" stroke="red"></path>
    <path d="M106.32947111924477 255.8025682608286L 107.12946910858136 255.8025682608286L107.12946910858136 256.6025662501652L106.32947111924477 256.6025662501652 Z" fill="black" stroke="red"></path>
    <path d="M87.92947667439785 261.6692371368408L 88.72947466373444 261.6692371368408L88.72947466373444 262.4692351261774L87.92947667439785 262.4692351261774 Z" fill="black" stroke="red"></path>
    <path d="M89.52947265307102 261.6692371368408L 105.52947312990818 261.6692371368408L105.52947312990818 262.4692351261774L89.52947265307102 262.4692351261774 Z" fill="black" stroke="red"></path>
    <path d="M106.32947111924477 261.6692371368408L 107.12946910858136 261.6692371368408L107.12946910858136 262.4692351261774L106.32947111924477 262.4692351261774 Z" fill="black" stroke="red"></path>
    <path d="M87.92947667439785 267.53590601285305L 88.72947466373444 267.53590601285305L88.72947466373444 268.33590400218964L87.92947667439785 268.33590400218964 Z" fill="black" stroke="red"></path>
    <path d="M89.52947265307102 267.53590601285305L 105.52947312990818 267.53590601285305L105.52947312990818 268.33590400218964L89.52947265307102 268.33590400218964 Z" fill="black" stroke="red"></path>
    <path d="M106.32947111924477 267.53590601285305L 107.12946910858136 267.53590601285305L107.12946910858136 268.33590400218964L106.32947111924477 268.33590400218964 Z" fill="black" stroke="red"></path>
    <path d="M87.92947667439785 273.1359021107355L 88.72947466373444 273.1359021107355L88.72947466373444 273.9359001000721L87.92947667439785 273.9359001000721 Z" fill="black" stroke="red"></path>
    <path d="M89.52947265307102 273.1359071969987L 105.52947312990818 273.1359071969987L105.52947312990818 273.9359051863353L89.52947265307102 273.9359051863353 Z" fill="black" stroke="red"></path>
    <path d="M106.32947111924477 273.1359021107355L 107.12946910858136 273.1359021107355L107.12946910858136 273.9359001000721L106.32947111924477 273.9359001000721 Z" fill="black" stroke="red"></path>
    <path d="M87.92947667439785 279.00257098674774L 88.72947466373444 279.00257098674774L88.72947466373444 279.80256897608433L87.92947667439785 279.80256897608433 Z" fill="black" stroke="red"></path>
    <path d="M89.52947265307102 279.00257098674774L 105.52947312990818 279.00257098674774L105.52947312990818 279.80256897608433L89.52947265307102 279.80256897608433 Z" fill="black" stroke="red"></path>
    <path d="M106.32947111924477 279.00257098674774L 107.12946910858136 279.00257098674774L107.12946910858136 279.80256897608433L106.32947111924477 279.80256897608433 Z" fill="black" stroke="red"></path>
    <path d="M87.92947667439785 284.86923986275997L 88.72947466373444 284.86923986275997L88.72947466373444 285.66923785209656L87.92947667439785 285.66923785209656 Z" fill="black" stroke="red"></path>
    <path d="M89.52947265307102 284.86923986275997L 105.52947312990818 284.86923986275997L105.52947312990818 285.66923785209656L89.52947265307102 285.66923785209656 Z" fill="black" stroke="red"></path>
    <path d="M106.32947111924477 284.86923986275997L 107.12946910858136 284.86923986275997L107.12946910858136 285.66923785209656L106.32947111924477 285.66923785209656 Z" fill="black" stroke="red"></path>
    <path d="M89.26281004746761 310.4692365566889L 117.79614626566581 310.4692365566889L117.79614626566581 315.26923466523476L89.26281004746761 315.26923466523476 Z" fill="black" stroke="red"></path>
    <path d="M55.92947572072353 214.20256854693093L 62.32947489420576 214.20256854693093L62.32947489420576 221.93590109348293L55.92947572072353 221.93590109348293 Z" fill="black" stroke="red"></path>
    <path d="M64.19613856474552 214.20256854693093L 69.79613974889116 214.20256854693093L69.79613974889116 222.2025713284811L64.19613856474552 222.2025713284811 Z" fill="black" stroke="red"></path>
    <path d="M70.59613773822775 214.2025723616283L 77.79613998730974 214.2025723616283L77.79613998730974 222.2025713284811L70.59613773822775 222.2025713284811 Z" fill="black" stroke="red"></path>
    <path d="M79.3961410522461 214.20256854693093L 84.99614223639173 214.20256854693093L84.99614223639173 222.2025713284811L79.3961410522461 222.2025713284811 Z" fill="black" stroke="red"></path>
    <path d="M86.3294756094615 214.20256854693093L 87.92947667439785 214.20256854693093L87.92947667439785 221.9359036366145L86.3294756094615 221.9359036366145 Z" fill="black" stroke="red"></path>
    <path d="M90.0628080368042 214.20256854693093L 96.19613951841984 214.20256854693093L96.19613951841984 221.9359036366145L90.0628080368042 221.9359036366145 Z" fill="black" stroke="red"></path>
    <path d="M96.9961425940196 214.20256981849673L 103.12947916189842 214.20256981849673L103.12947916189842 221.9359036366145L96.9961425940196 221.9359036366145 Z" fill="black" stroke="red"></path>
    <path d="M41.52947122255955 311.53590732415523L 44.19613796869908 311.53590732415523L44.19613796869908 314.73590945402793L41.52947122255955 314.73590945402793 Z" fill="black" stroke="red"></path>
    <path d="M44.19614051183066 311.00257194042206L 47.929472939173365 311.00257194042206L47.929472939173365 314.73590945402793L44.19614051183066 314.73590945402793 Z" fill="black" stroke="red"></path>
    <path d="M48.19614063103995 311.53590732415523L 50.86280737717948 311.53590732415523L50.86280737717948 314.73590945402793L48.19614063103995 314.73590945402793 Z" fill="black" stroke="red"></path>
    <path d="M51.129469982782894 311.2692447185518L 55.12947264512377 311.2692447185518L55.12947264512377 314.73590945402793L51.129469982782894 314.73590945402793 Z" fill="black" stroke="red"></path>
    <path d="M54.86280749638877 311.2692447185518L 57.262809093793294 311.2692447185518L57.262809093793294 314.73590945402793L54.86280749638877 314.73590945402793 Z" fill="black" stroke="red"></path>
</svg>